<?xml version="1.0" standalone="no"?>
<!DOCTYPE svg PUBLIC "-//W3C//DTD SVG 20010904//EN"
 "http://www.w3.org/TR/2001/REC-SVG-20010904/DTD/svg10.dtd">
<svg version="1.0" xmlns="http://www.w3.org/2000/svg"
 width="32.000000pt" height="32.000000pt" viewBox="0 0 32.000000 32.000000"
 preserveAspectRatio="xMidYMid meet">

<g transform="translate(0.000000,32.000000) scale(0.100000,-0.100000)"
fill="#4a9aed" stroke="none">
<path d="M62 308 c-8 -8 -12 -51 -12 -134 0 -71 -4 -125 -10 -129 -6 -3 -10
-15 -10 -26 0 -19 6 -19 117 -17 120 3 139 10 108 41 -8 9 -15 28 -14 44 0 27
1 27 9 6 5 -13 16 -23 25 -23 24 0 22 202 -2 221 -14 11 -15 11 -9 1 5 -8 3
-24 -4 -38 -11 -20 -11 -27 3 -42 12 -13 17 -36 17 -78 -1 -49 -3 -56 -12 -39
-6 11 -15 22 -19 25 -5 3 -9 48 -11 100 l-3 95 -80 3 c-54 2 -84 -1 -93 -10z
m163 -128 l0 -125 -77 -3 -78 -3 0 124 c0 68 3 127 7 131 4 4 39 5 78 4 l70
-3 0 -125z m52 48 c-3 -8 -6 -5 -6 6 -1 11 2 17 5 13 3 -3 4 -12 1 -19z m-27
-203 c0 -12 -18 -15 -105 -15 -87 0 -105 3 -105 15 0 12 18 15 105 15 87 0
105 -3 105 -15z"/>
<path d="M80 245 l0 -45 65 0 65 0 0 45 0 45 -65 0 -65 0 0 -45z m120 -1 l0
-35 -52 3 c-52 3 -53 4 -56 36 l-3 32 55 0 56 0 0 -36z"/>
</g>
</svg>
