<?xml version="1.0" standalone="no"?>
<!DOCTYPE svg PUBLIC "-//W3C//DTD SVG 20010904//EN"
 "http://www.w3.org/TR/2001/REC-SVG-20010904/DTD/svg10.dtd">
<svg version="1.0" xmlns="http://www.w3.org/2000/svg"
 width="32.000000pt" height="32.000000pt" viewBox="0 0 32.000000 32.000000"
 preserveAspectRatio="xMidYMid meet">

<g transform="translate(0.000000,32.000000) scale(0.100000,-0.100000)"
fill="#4a9aed" stroke="none">
<path d="M92 250 c-41 -25 -72 -76 -72 -117 0 -36 18 -83 32 -83 8 0 5 19 -9
58 -3 6 2 12 11 12 9 0 16 5 16 10 0 6 -7 10 -15 10 -18 0 -18 1 -5 35 8 21
14 25 31 20 18 -6 20 -4 14 14 -5 17 -1 23 20 31 34 13 35 13 35 -5 0 -8 5
-15 10 -15 6 0 10 7 10 15 0 18 1 18 35 5 21 -8 25 -14 20 -31 -6 -18 -4 -20
14 -14 17 5 23 1 31 -20 13 -34 13 -35 -5 -35 -8 0 -15 -4 -15 -10 0 -5 7 -10
16 -10 15 0 14 -10 -3 -57 -9 -25 14 -13 25 12 18 38 14 86 -8 123 -42 68
-124 91 -188 52z"/>
<path d="M184 141 c-10 -16 -26 -32 -37 -35 -30 -7 -19 -51 13 -51 20 0 26 6
31 35 4 19 10 45 14 58 10 31 -1 28 -21 -7z"/>
</g>
</svg>
