<?xml version="1.0" standalone="no"?>
<!DOCTYPE svg PUBLIC "-//W3C//DTD SVG 20010904//EN"
 "http://www.w3.org/TR/2001/REC-SVG-20010904/DTD/svg10.dtd">
<svg version="1.0" xmlns="http://www.w3.org/2000/svg"
 width="32.000000pt" height="32.000000pt" viewBox="0 0 32.000000 32.000000"
 preserveAspectRatio="xMidYMid meet">

<g transform="translate(0.000000,32.000000) scale(0.100000,-0.100000)"
fill="#4a9aed" stroke="none">
<path d="M82 274 c-26 -18 -30 -75 -7 -94 14 -11 12 -15 -14 -31 -34 -20 -61
-67 -60 -101 0 -17 4 -12 15 17 19 54 59 85 109 85 50 0 90 -31 109 -85 11
-29 15 -34 15 -17 1 34 -26 81 -60 101 -26 16 -28 20 -14 31 8 7 15 27 15 46
0 36 -28 64 -65 64 -11 0 -31 -7 -43 -16z m76 -10 c40 -28 19 -94 -30 -94 -29
0 -58 28 -58 56 0 22 33 54 55 54 6 0 21 -7 33 -16z"/>
<path d="M238 244 c28 -20 30 -64 2 -71 -25 -7 -26 -23 -2 -23 26 -1 48 -22
65 -60 10 -22 16 -28 16 -17 1 24 -17 57 -42 77 -17 14 -18 20 -8 39 10 18 9
27 -4 47 -8 13 -23 24 -32 24 -14 0 -13 -3 5 -16z"/>
</g>
</svg>
