<?xml version="1.0" standalone="no"?>
<!DOCTYPE svg PUBLIC "-//W3C//DTD SVG 20010904//EN"
 "http://www.w3.org/TR/2001/REC-SVG-20010904/DTD/svg10.dtd">
<svg version="1.0" xmlns="http://www.w3.org/2000/svg"
 width="32.000000pt" height="32.000000pt" viewBox="0 0 32.000000 32.000000"
 preserveAspectRatio="xMidYMid meet">

<g transform="translate(0.000000,32.000000) scale(0.100000,-0.100000)"
fill="#4a9aed" stroke="none">
<path d="M95 306 c-101 -44 -125 -178 -46 -257 65 -65 157 -65 222 0 124 124
-15 327 -176 257z m150 -68 l29 -33 -57 -3 c-31 -2 -82 -2 -113 0 l-56 3 22
28 c29 37 56 48 105 42 30 -3 48 -12 70 -37z m-69 -69 c10 -17 -13 -36 -27
-22 -12 12 -4 33 11 33 5 0 12 -5 16 -11z m-74 -36 c17 -15 44 -81 36 -88 -17
-17 -98 68 -98 102 0 17 36 9 62 -14z m178 13 c0 -37 -89 -124 -98 -96 -7 19
33 85 58 97 32 16 40 16 40 -1z"/>
</g>
</svg>
